# xmcd
#
# Track frame offsets:
#	150
#	18932
#	35917
#	52395
#	78197
#	98287
#	117097
#	137207
#	165997
#	180375
#	201807
#	226142
#	244767
#	264197
#
# Disc length: 3827 seconds
#
# Revision: 0
# Processed by: cddbd v1.4PL0 Copyright (c) Steve Scherf et al.
# Submitted via: EasyCDDAExtractor 4.5.0.2
#
DISCID=a90ef10e
DTITLE=Baseado Em Blue - Madrugada Blues
DYEAR=2000
DGENRE=Blues
TTITLE0=When You Love Somebody
TTITLE1=Runnaway Man
TTITLE2=Engano
TTITLE3=Special Girl
TTITLE4=Someday
TTITLE5=Lucky Guy
TTITLE6=I Gotta Be Free
TTITLE7=Night
TTITLE8=Madrugada Blues
TTITLE9=Feeling The Blues
TTITLE10=Velha Roupa Colorida
TTITLE11=Something To Tell You
TTITLE12=I Don't Care About You
TTITLE13=Jungle Swing (Bônus Track)
EXTD=
EXTT0=
EXTT1=
EXTT2=
EXTT3=
EXTT4=
EXTT5=
EXTT6=
EXTT7=
EXTT8=
EXTT9=
EXTT10=
EXTT11=
EXTT12=
EXTT13=
PLAYORDER=
